<svg width="45" height="45" viewBox="0 0 45 45" fill="none" xmlns="http://www.w3.org/2000/svg">
<mask id="path-1-inside-1_495_2" fill="white">
<path d="M37.58 16.0129C36.5611 12.9205 33.7303 11 30.1919 11C27.8999 11 25.4369 11.7889 23.0499 13.285C20.6624 11.7893 18.1937 11 15.8919 11C12.3136 11 9.45118 12.9412 8.421 16.0665C6.77207 21.0702 9.65296 29.4818 22.6838 38.0857L22.9673 38.2727L23.2507 38.0857C36.3326 29.4481 39.2299 21.02 37.58 16.0129ZM9.30748 16.5594L11.3666 19.5707L9.10765 20.3673C8.88912 18.9476 8.97991 17.6673 9.30748 16.5594ZM25.7933 27.0187L22.9928 28.9329L20.303 27.1197L20.1607 26.9515L20.1628 26.9465L20.1538 26.9434L15.5974 21.5672L14.4814 18.6037L18.0063 17.3116L22.9379 18.4573L28.0881 17.3116L31.5671 18.6518L30.3987 21.406L25.7933 27.0187ZM13.5973 19.059L14.154 20.5376L12.8525 19.8429L13.5973 19.059ZM32.4729 19.0406L33.2458 19.8146L31.8221 20.5745L32.4729 19.0406ZM31.8628 17.7471L29.395 16.7962L31.7919 15.7767L31.8628 17.7471ZM23.5102 17.36L23.5231 16.1421L26.0801 16.7887L23.5102 17.36ZM22.5164 17.387L19.9534 16.7918L22.5295 16.1405L22.5164 17.387ZM14.1845 17.7005L14.2538 15.7769L16.6507 16.7961L14.1845 17.7005ZM14.6645 21.8929L14.7165 22.0315L14.6883 25.1361L10.7067 23.8336L12.2746 20.6177L14.6645 21.8929ZM15.6997 23.1937L18.3211 26.2869L15.6803 25.3401L15.6997 23.1937ZM22.164 29.5323L21.0169 30.3056L20.647 28.5098L22.164 29.5323ZM23.0227 30.1109L24.7769 31.2937L23.0227 36.1039L21.2687 31.2934L23.0227 30.1109ZM23.8497 29.5105L25.4129 28.4419L25.029 30.3053L23.8497 29.5105ZM30.3477 23.0033L30.3683 25.3394L27.6242 26.3231L30.3477 23.0033ZM31.3318 21.9195L33.7708 20.6179L35.3386 23.8339L31.3593 25.1355L31.3318 21.9195ZM32.8682 18.0655L32.7837 15.714L35.9314 16.006L33.8503 19.0492L32.8682 18.0655ZM28.0862 16.3189L24.0445 15.2972L28.1067 12.3399L31.2535 14.9721L28.0862 16.3189ZM23.5404 14.4747L23.5444 14.1089C24.1954 13.6975 24.851 13.3409 25.5051 13.0445L23.5404 14.4747ZM22.5466 14.5046L20.4618 12.9872C21.159 13.2944 21.8577 13.668 22.5508 14.1056L22.5466 14.5046ZM17.939 12.3399L22.0012 15.2972L17.96 16.3188L14.7926 14.972L17.939 12.3399ZM13.1775 18.0653L12.1952 19.049L10.1141 16.0058L13.2618 15.7137L13.1775 18.0653ZM11.164 20.6494L9.91122 23.2192C9.64719 22.5614 9.44436 21.9233 9.29649 21.3079L11.164 20.6494ZM13.9495 25.893L12.0913 27.1454C11.5299 26.3497 11.0502 25.5709 10.651 24.8145L13.9495 25.893ZM14.6753 26.5612L14.6418 30.2503C13.8993 29.4599 13.2424 28.6831 12.6597 27.9201L14.6753 26.5612ZM15.6707 26.3462L19.4691 27.7075L20.0716 30.6326L15.6326 30.5694L15.6707 26.3462ZM22.135 36.5526C20.8495 35.6649 19.6725 34.782 18.6009 33.9079L20.4614 31.9626L22.135 36.5526ZM25.5844 31.9626L27.3909 33.8513C26.344 34.7122 25.1995 35.5797 23.9477 36.451L25.5844 31.9626ZM26.5762 27.7079L30.3769 26.3455L30.4134 30.5693L25.9737 30.6325L26.5762 27.7079ZM31.3723 26.5629L33.2857 27.8528C32.7295 28.5872 32.1042 29.3353 31.4023 30.095L31.3723 26.5629ZM32.0963 25.893L35.2146 24.8731C34.8305 25.5886 34.3777 26.3237 33.8512 27.0758L32.0963 25.893ZM34.8822 20.6493L36.6474 21.272C36.5023 21.8499 36.3075 22.4495 36.0608 23.068L34.8822 20.6493ZM34.6787 19.5708L36.7173 16.5891C37.0153 17.6583 37.0816 18.9206 36.8449 20.3344L34.6787 19.5708ZM36.0807 15.0706L33.002 14.7852L33.8939 12.8774C34.8039 13.4061 35.5468 14.1486 36.0807 15.0706ZM33.006 12.451L32.0886 14.4124L29.2034 11.9991C29.5365 11.9642 29.8671 11.944 30.1923 11.944C31.218 11.9442 32.1635 12.1214 33.006 12.451ZM16.8478 11.995L13.9575 14.4124L13.0431 12.4569C13.8963 12.1232 14.854 11.9443 15.8929 11.9443C16.2073 11.9443 16.526 11.9627 16.8478 11.995ZM12.1545 12.882L13.0448 14.7854L9.94976 15.0724C10.4903 14.1517 11.2393 13.4105 12.1545 12.882ZM15.8984 31.5174L19.4952 31.5683L17.8516 33.2869C17.1518 32.6925 16.505 32.1025 15.8984 31.5174ZM28.1375 33.2272L26.551 31.5683L30.0094 31.5192C29.427 32.0843 28.8063 32.6541 28.1375 33.2272Z"/>
</mask>
<path d="M37.58 16.0129C36.5611 12.9205 33.7303 11 30.1919 11C27.8999 11 25.4369 11.7889 23.0499 13.285C20.6624 11.7893 18.1937 11 15.8919 11C12.3136 11 9.45118 12.9412 8.421 16.0665C6.77207 21.0702 9.65296 29.4818 22.6838 38.0857L22.9673 38.2727L23.2507 38.0857C36.3326 29.4481 39.2299 21.02 37.58 16.0129ZM9.30748 16.5594L11.3666 19.5707L9.10765 20.3673C8.88912 18.9476 8.97991 17.6673 9.30748 16.5594ZM25.7933 27.0187L22.9928 28.9329L20.303 27.1197L20.1607 26.9515L20.1628 26.9465L20.1538 26.9434L15.5974 21.5672L14.4814 18.6037L18.0063 17.3116L22.9379 18.4573L28.0881 17.3116L31.5671 18.6518L30.3987 21.406L25.7933 27.0187ZM13.5973 19.059L14.154 20.5376L12.8525 19.8429L13.5973 19.059ZM32.4729 19.0406L33.2458 19.8146L31.8221 20.5745L32.4729 19.0406ZM31.8628 17.7471L29.395 16.7962L31.7919 15.7767L31.8628 17.7471ZM23.5102 17.36L23.5231 16.1421L26.0801 16.7887L23.5102 17.36ZM22.5164 17.387L19.9534 16.7918L22.5295 16.1405L22.5164 17.387ZM14.1845 17.7005L14.2538 15.7769L16.6507 16.7961L14.1845 17.7005ZM14.6645 21.8929L14.7165 22.0315L14.6883 25.1361L10.7067 23.8336L12.2746 20.6177L14.6645 21.8929ZM15.6997 23.1937L18.3211 26.2869L15.6803 25.3401L15.6997 23.1937ZM22.164 29.5323L21.0169 30.3056L20.647 28.5098L22.164 29.5323ZM23.0227 30.1109L24.7769 31.2937L23.0227 36.1039L21.2687 31.2934L23.0227 30.1109ZM23.8497 29.5105L25.4129 28.4419L25.029 30.3053L23.8497 29.5105ZM30.3477 23.0033L30.3683 25.3394L27.6242 26.3231L30.3477 23.0033ZM31.3318 21.9195L33.7708 20.6179L35.3386 23.8339L31.3593 25.1355L31.3318 21.9195ZM32.8682 18.0655L32.7837 15.714L35.9314 16.006L33.8503 19.0492L32.8682 18.0655ZM28.0862 16.3189L24.0445 15.2972L28.1067 12.3399L31.2535 14.9721L28.0862 16.3189ZM23.5404 14.4747L23.5444 14.1089C24.1954 13.6975 24.851 13.3409 25.5051 13.0445L23.5404 14.4747ZM22.5466 14.5046L20.4618 12.9872C21.159 13.2944 21.8577 13.668 22.5508 14.1056L22.5466 14.5046ZM17.939 12.3399L22.0012 15.2972L17.96 16.3188L14.7926 14.972L17.939 12.3399ZM13.1775 18.0653L12.1952 19.049L10.1141 16.0058L13.2618 15.7137L13.1775 18.0653ZM11.164 20.6494L9.91122 23.2192C9.64719 22.5614 9.44436 21.9233 9.29649 21.3079L11.164 20.6494ZM13.9495 25.893L12.0913 27.1454C11.5299 26.3497 11.0502 25.5709 10.651 24.8145L13.9495 25.893ZM14.6753 26.5612L14.6418 30.2503C13.8993 29.4599 13.2424 28.6831 12.6597 27.9201L14.6753 26.5612ZM15.6707 26.3462L19.4691 27.7075L20.0716 30.6326L15.6326 30.5694L15.6707 26.3462ZM22.135 36.5526C20.8495 35.6649 19.6725 34.782 18.6009 33.9079L20.4614 31.9626L22.135 36.5526ZM25.5844 31.9626L27.3909 33.8513C26.344 34.7122 25.1995 35.5797 23.9477 36.451L25.5844 31.9626ZM26.5762 27.7079L30.3769 26.3455L30.4134 30.5693L25.9737 30.6325L26.5762 27.7079ZM31.3723 26.5629L33.2857 27.8528C32.7295 28.5872 32.1042 29.3353 31.4023 30.095L31.3723 26.5629ZM32.0963 25.893L35.2146 24.8731C34.8305 25.5886 34.3777 26.3237 33.8512 27.0758L32.0963 25.893ZM34.8822 20.6493L36.6474 21.272C36.5023 21.8499 36.3075 22.4495 36.0608 23.068L34.8822 20.6493ZM34.6787 19.5708L36.7173 16.5891C37.0153 17.6583 37.0816 18.9206 36.8449 20.3344L34.6787 19.5708ZM36.0807 15.0706L33.002 14.7852L33.8939 12.8774C34.8039 13.4061 35.5468 14.1486 36.0807 15.0706ZM33.006 12.451L32.0886 14.4124L29.2034 11.9991C29.5365 11.9642 29.8671 11.944 30.1923 11.944C31.218 11.9442 32.1635 12.1214 33.006 12.451ZM16.8478 11.995L13.9575 14.4124L13.0431 12.4569C13.8963 12.1232 14.854 11.9443 15.8929 11.9443C16.2073 11.9443 16.526 11.9627 16.8478 11.995ZM12.1545 12.882L13.0448 14.7854L9.94976 15.0724C10.4903 14.1517 11.2393 13.4105 12.1545 12.882ZM15.8984 31.5174L19.4952 31.5683L17.8516 33.2869C17.1518 32.6925 16.505 32.1025 15.8984 31.5174ZM28.1375 33.2272L26.551 31.5683L30.0094 31.5192C29.427 32.0843 28.8063 32.6541 28.1375 33.2272Z" fill="#BEA092" stroke="#BEA092" stroke-width="0.4" mask="url(#path-1-inside-1_495_2)"/>
<circle cx="22.5" cy="22.5" r="22.25" stroke="#BEA092" stroke-width="0.5"/>
</svg>
